<svg xmlns="http://www.w3.org/2000/svg" viewBox="0 0 200 200" width="200" height="200">
  <defs>
    <!-- Gradient dla nieba/tła (wizualizacja przezroczystości oceanów) -->
    <radialGradient id="skyGradient" cx="50%" cy="30%">
      <stop offset="0%" style="stop-color:#87ceeb;stop-opacity:0.15" />
      <stop offset="100%" style="stop-color:#4682b4;stop-opacity:0.25" />
    </radialGradient>
    
    <!-- Animacja pulsowania -->
    <style>
      @keyframes pulse {
        0%, 100% {
          transform: scale(1);
          opacity: 1;
        }
        50% {
          transform: scale(1.05);
          opacity: 0.95;
        }
      }
      .earth-circle {
        animation: pulse 3s ease-in-out infinite;
        transform-origin: center;
      }
      .forest-group {
        animation: pulse 3s ease-in-out infinite;
        animation-delay: 0.1s;
        transform-origin: center;
      }
      .glow {
        animation: pulse 3s ease-in-out infinite;
        animation-delay: 0.15s;
        transform-origin: center;
      }
    </style>
  </defs>
  
  <!-- Zewnętrzny blask -->
  <circle cx="100" cy="100" r="95" fill="#2ecc71" opacity="0.15" class="glow"/>
  <circle cx="100" cy="100" r="90" fill="#27ae60" opacity="0.2" class="glow"/>
  
  <!-- Kula ziemska - białe tło z lekkim niebieskim odcieniem dla oceanów -->
  <circle cx="100" cy="100" r="80" fill="url(#skyGradient)" stroke="#4a90e2" stroke-width="1" opacity="0.3" class="earth-circle"/>
  <circle cx="100" cy="100" r="80" fill="#f0f8ff" opacity="0.4" class="earth-circle"/>
  
  <!-- Kontynenty - kształty przypominające rzeczywiste kontynenty -->
  
  <!-- Ameryka Północna -->
  <path d="M 70 50 Q 65 45 65 55 Q 65 70 68 80 Q 72 90 75 95 Q 80 98 85 95 Q 88 90 90 85 Q 92 75 95 70 Q 95 60 90 55 Q 85 50 80 50 Q 75 48 70 50" 
        fill="#27ae60" class="forest-group"/>
  
  <!-- Ameryka Południowa -->
  <path d="M 75 95 Q 78 100 82 105 Q 85 115 88 125 Q 90 135 88 140 Q 85 145 80 140 Q 75 135 72 125 Q 70 115 72 105 Q 74 98 75 95" 
        fill="#229954" class="forest-group"/>
  
  <!-- Europa -->
  <path d="M 90 50 Q 100 48 105 52 Q 108 55 110 60 Q 112 65 110 70 Q 108 75 105 72 Q 100 68 95 65 Q 90 62 88 58 Q 90 54 90 50" 
        fill="#2ecc71" class="forest-group"/>
  
  <!-- Afryka -->
  <path d="M 100 65 Q 110 68 115 75 Q 118 85 120 95 Q 122 110 120 125 Q 118 135 115 130 Q 110 125 105 120 Q 100 115 98 105 Q 98 95 100 85 Q 102 75 100 65" 
        fill="#27ae60" class="forest-group"/>
  
  <!-- Azja -->
  <path d="M 110 55 Q 125 50 135 58 Q 140 65 142 75 Q 143 85 140 95 Q 137 105 130 108 Q 125 110 118 105 Q 115 100 112 90 Q 110 80 110 70 Q 110 62 110 55" 
        fill="#229954" class="forest-group"/>
  
  <!-- Australia -->
  <path d="M 125 110 Q 132 108 138 112 Q 142 116 140 120 Q 138 124 132 122 Q 128 120 125 115 Q 125 112 125 110" 
        fill="#2ecc71" class="forest-group"/>
  
  <!-- Las - drzewa na kontynentach -->
  <g class="forest-group">
    <!-- Ameryka Północna - drzewa -->
    <rect x="72" y="65" width="2" height="6" fill="#1e8449"/>
    <circle cx="73" cy="63" r="3" fill="#27ae60"/>
    <rect x="78" y="70" width="1.5" height="5" fill="#1e8449"/>
    <circle cx="78.75" cy="68" r="2.5" fill="#229954"/>
    <rect x="85" y="68" width="2" height="7" fill="#1e8449"/>
    <path d="M 86 68 Q 86 63 88.5 63 Q 91 63 91 68" fill="#27ae60"/>
    
    <!-- Ameryka Południowa - drzewa -->
    <rect x="75" y="105" width="2" height="8" fill="#1e8449"/>
    <circle cx="76" cy="103" r="3.5" fill="#229954"/>
    <rect x="80" y="110" width="1.5" height="6" fill="#1e8449"/>
    <circle cx="80.75" cy="108" r="2.5" fill="#27ae60"/>
    <rect x="85" y="120" width="2" height="7" fill="#1e8449"/>
    <path d="M 86 120 Q 86 115 88.5 115 Q 91 115 91 120" fill="#229954"/>
    
    <!-- Afryka - drzewa -->
    <rect x="102" y="85" width="2" height="8" fill="#1e8449"/>
    <circle cx="103" cy="83" r="4" fill="#27ae60"/>
    <rect x="108" y="95" width="1.5" height="7" fill="#1e8449"/>
    <circle cx="108.75" cy="93" r="3" fill="#229954"/>
    <rect x="113" y="105" width="2" height="8" fill="#1e8449"/>
    <circle cx="114" cy="103" r="3.5" fill="#27ae60"/>
    <rect x="118" y="115" width="2" height="7" fill="#1e8449"/>
    <path d="M 119 115 Q 119 110 121.5 110 Q 124 110 124 115" fill="#229954"/>
    
    <!-- Azja - drzewa -->
    <rect x="115" y="70" width="2" height="6" fill="#1e8449"/>
    <circle cx="116" cy="68" r="3" fill="#27ae60"/>
    <rect x="120" y="75" width="1.5" height="7" fill="#1e8449"/>
    <circle cx="120.75" cy="73" r="2.5" fill="#229954"/>
    <rect x="125" y="80" width="2" height="8" fill="#1e8449"/>
    <path d="M 126 80 Q 126 75 128.5 75 Q 131 75 131 80" fill="#27ae60"/>
    <rect x="130" y="88" width="2" height="7" fill="#1e8449"/>
    <circle cx="131" cy="86" r="3" fill="#229954"/>
    
    <!-- Europa - drzewa -->
    <rect x="95" y="58" width="1.5" height="5" fill="#1e8449"/>
    <circle cx="95.75" cy="56" r="2" fill="#27ae60"/>
    <rect x="100" y="62" width="1.5" height="6" fill="#1e8449"/>
    <circle cx="100.75" cy="60" r="2.5" fill="#229954"/>
    <rect x="105" y="65" width="2" height="6" fill="#1e8449"/>
    <circle cx="106" cy="63" r="2.5" fill="#27ae60"/>
    
    <!-- Australia - drzewa -->
    <rect x="128" y="115" width="1.5" height="5" fill="#1e8449"/>
    <circle cx="128.75" cy="113" r="2.5" fill="#229954"/>
    <rect x="132" y="118" width="2" height="6" fill="#1e8449"/>
    <circle cx="133" cy="116" r="2.5" fill="#27ae60"/>
  </g>
  
  <!-- Subtelne cienie dla głębi -->
  <path d="M 70 50 Q 65 45 65 55 Q 65 70 68 80 Q 72 90 75 95 Q 80 98 85 95 Q 88 90 90 85 Q 92 75 95 70 Q 95 60 90 55 Q 85 50 80 50 Q 75 48 70 50" 
        fill="none" stroke="#1e8449" stroke-width="0.5" opacity="0.3"/>
  <path d="M 100 65 Q 110 68 115 75 Q 118 85 120 95 Q 122 110 120 125 Q 118 135 115 130 Q 110 125 105 120 Q 100 115 98 105 Q 98 95 100 85 Q 102 75 100 65" 
        fill="none" stroke="#1e8449" stroke-width="0.5" opacity="0.3"/>
  
  <!-- Delikatne refleksy świetlne na oceanach (efekt przezroczystości) -->
  <ellipse cx="85" cy="70" rx="25" ry="15" fill="#ffffff" opacity="0.1" transform="rotate(-20 85 70)"/>
  <ellipse cx="110" cy="100" rx="20" ry="12" fill="#ffffff" opacity="0.08" transform="rotate(15 110 100)"/>
</svg>
